<svg width="224" height="18" viewBox="0 0 224 18" fill="none" xmlns="http://www.w3.org/2000/svg">
<path fill-rule="evenodd" clip-rule="evenodd" d="M218.846 0.334852C218.846 0.525003 219.002 0.68058 219.192 0.68058C219.382 0.68058 219.561 1.18604 219.59 1.8042L219.642 2.92782L219.792 1.90688C219.875 1.34542 220.202 0.689224 220.518 0.448597C221.02 0.0672576 220.95 0.00986638 219.97 0.000185975C219.352 -0.00603714 218.846 0.144701 218.846 0.334852ZM221.201 1.19917C221.123 1.8647 221.184 2.40922 221.336 2.40922C221.488 2.40922 221.617 2.13679 221.623 1.8042C221.633 1.26417 221.691 1.27351 222.162 1.89063L222.69 2.58209L223.084 1.89063C223.465 1.22234 223.486 1.22821 223.72 2.0635C223.917 2.76118 223.97 2.64467 223.998 1.45847C224.035 -0.14744 223.597 -0.444075 222.956 0.754221L222.546 1.51932L222.263 0.754221C221.845 -0.377695 221.361 -0.175444 221.201 1.19917ZM7.60604 2.0635C7.60604 3.09238 7.59048 3.10068 5.6703 3.10068C3.3107 3.10068 1.52328 3.89102 0.652045 5.32026C0.138983 6.16142 0.00242 7.06516 0.00138282 9.62389L0 12.8623L1.34212 14.2048C2.65001 15.5123 2.74785 15.5469 5.14514 15.5469H7.60604V16.757C7.60604 17.8709 7.68832 17.967 8.64322 17.967C9.59813 17.967 9.68041 17.8709 9.68041 16.757V15.5469H12.1413C14.5386 15.5469 14.6364 15.5123 15.9443 14.2048L17.2864 12.8623L17.2851 9.62389C17.284 6.98529 17.1544 6.17283 16.586 5.24074C15.713 3.80874 14.0608 3.10068 11.593 3.10068C9.69839 3.10068 9.68041 3.091 9.68041 2.0635C9.68041 1.14144 9.56528 1.02631 8.64322 1.02631C7.72116 1.02631 7.60604 1.14144 7.60604 2.0635ZM22.1512 2.32348C19.7332 3.55635 19.5472 4.15204 19.4192 11.0766L19.3048 17.2756H20.37H21.4352V15.0283V12.7811H27.1397H32.8442V15.0283V17.2756H33.8814H34.9186V10.9263C34.9186 4.9365 34.8761 4.52301 34.1691 3.62412C32.9729 2.10325 31.5702 1.71777 27.2372 1.71846C24.2069 1.7188 23.0722 1.85364 22.1512 2.32348ZM37.3387 9.49667V17.2756H43.2272C49.675 17.2756 50.8439 17.0256 52.147 15.3692C53.2049 14.0243 53.2049 10.8464 52.147 9.50151C50.8913 7.90493 49.6069 7.59516 44.2464 7.59516H39.3768L39.4815 5.78008L39.586 3.965L45.2041 3.86993L50.8221 3.77485V2.74631V1.71777H44.0804H37.3387V9.49667ZM54.9709 9.49667V17.2756H56.0081H57.0453V15.0283V12.7811H61.9774C67.5858 12.7811 68.7859 12.4112 69.897 10.3396C70.6933 8.85499 70.7254 5.8672 69.9624 4.25922C68.9304 2.08424 67.618 1.71777 60.8621 1.71777H54.9709V9.49667ZM72.6031 9.49667V17.2756H73.5995C74.6028 17.2756 75.8135 16.0458 83.7023 7.01502C84.7285 5.84058 85.6844 4.86805 85.8272 4.85422C85.97 4.84074 86.0865 7.62973 86.0865 11.0524V17.2756H87.1237H88.1609V9.47592V1.67593L87.0179 1.78346C86.0294 1.87611 85.1309 2.70379 80.3626 7.91392L74.8503 13.9376L74.7559 7.82749L74.6615 1.71777H73.6323H72.6031V9.49667ZM90.581 9.49667V17.2756H91.6181H92.6553V13.8183V10.361H94.477H96.2986L99.7428 13.8183C102.963 17.0512 103.277 17.2756 104.575 17.2756H105.962L102.076 13.3899L98.1905 9.50393L102.073 5.61102L105.954 1.71777L104.577 1.71811C103.312 1.71846 102.918 1.98502 99.7428 4.98732C96.2924 8.24962 96.2817 8.25619 94.4704 8.2714L92.6553 8.28662V5.00219V1.71777H91.6181H90.581V9.49667ZM109.966 2.32348C107.522 3.56949 107.349 4.14409 107.349 10.9906V17.1027L108.3 17.212L109.25 17.3215V15.0511V12.7811H114.955H120.659V15.0283V17.2756L121.783 17.2759L122.907 17.2763L122.805 10.9982C122.712 5.26287 122.64 4.63122 121.976 3.6981C120.85 2.11674 119.453 1.71777 115.052 1.71846C112.022 1.7188 110.887 1.85364 109.966 2.32348ZM136.605 2.30896C134.51 3.34096 134.145 4.40719 134.145 9.49667C134.145 14.6328 134.589 15.8823 136.732 16.7777C138.116 17.3558 145.326 17.4757 146.726 16.9437C147.841 16.5198 148.945 15.4159 149.369 14.3006C149.875 12.9702 149.787 12.7811 148.663 12.7811C148.093 12.7811 147.626 12.9436 147.626 13.1424C147.626 13.3412 147.244 13.8857 146.777 14.3524C145.976 15.1545 145.712 15.2012 141.984 15.2012C138.517 15.2012 137.929 15.1144 137.128 14.4845C136.232 13.7796 136.217 13.6993 136.217 9.49667C136.217 5.29399 136.232 5.21378 137.128 4.50884C137.929 3.87892 138.517 3.79214 141.984 3.79214C145.712 3.79214 145.976 3.83881 146.777 4.6409C147.244 5.10764 147.626 5.65216 147.626 5.85096C147.626 6.04975 148.11 6.21224 148.701 6.21224C149.686 6.21224 149.757 6.13687 149.55 5.31335C149.204 3.937 147.978 2.47906 146.829 2.07836C145.097 1.47472 137.972 1.63514 136.605 2.30896ZM151.509 9.41023L151.602 17.1027L157.134 17.2078C163.381 17.3264 164.798 17.0588 166.097 15.5141C167.226 14.173 167.339 11.5939 166.327 10.306C165.679 9.48284 165.679 9.45034 166.319 8.61748C167.25 7.40501 167.209 4.85906 166.238 3.62412C164.934 1.96738 163.766 1.71777 157.311 1.71777H151.416L151.509 9.41023ZM169.407 9.49667V17.2756H177.186H184.965V16.2384V15.2012H178.223H171.482V12.7811V10.361H177.013H182.545V9.3238V8.28662H177.013H171.482V6.03938V3.79214H178.223H184.965V2.75495V1.71777H177.186H169.407V9.49667ZM186.002 2.75495V3.79214H189.287H192.571V10.5339V17.2756H193.608H194.645V10.5339V3.79214H198.103H201.56V2.75495V1.71777H193.781H186.002V2.75495ZM204.808 2.19833C204.218 2.46281 203.402 3.14805 202.993 3.72127C202.3 4.69449 202.251 5.1754 202.251 11.0193V17.2756H203.289H204.326V15.0283V12.7811H210.03H215.735V15.0283V17.2756H216.772H217.809V11.56C217.809 5.35138 217.581 4.28411 215.925 2.75495C215.038 1.93523 214.754 1.88614 210.436 1.8042C207.133 1.74128 205.587 1.84984 204.808 2.19833ZM31.5706 4.18973C32.7208 4.7951 32.8332 5.13564 32.8391 8.03596L32.8442 10.724L27.2261 10.6289L21.6081 10.5339L21.5068 8.43459C21.3864 5.94188 21.829 4.58075 22.8994 4.15066C24.0479 3.68911 30.6765 3.71919 31.5706 4.18973ZM67.6056 4.6409C68.3001 5.33513 68.4543 5.83367 68.4543 7.3815C68.4543 9.01368 68.3292 9.37186 67.5433 9.99002C66.7212 10.6369 66.1649 10.7067 61.8388 10.7067H57.0453V7.24943V3.79214H61.901C66.596 3.79214 66.7851 3.82014 67.6056 4.6409ZM119.386 4.18973C120.536 4.7951 120.648 5.13564 120.654 8.03596L120.659 10.724L115.041 10.6289L109.423 10.5339L109.322 8.43459C109.202 5.94188 109.644 4.58075 110.714 4.15066C111.863 3.68911 118.492 3.71919 119.386 4.18973ZM164.423 4.63606C165.079 5.53461 165.042 6.87915 164.34 7.65428C163.835 8.21263 163.169 8.28662 158.636 8.28662H153.504V6.26998C153.504 5.16053 153.618 4.13856 153.758 3.99854C153.898 3.85852 156.245 3.79352 158.973 3.85437C163.41 3.95325 163.984 4.03553 164.423 4.63606ZM215.089 4.79856C215.642 5.48275 215.745 6.07049 215.663 8.08298L215.562 10.5339L209.944 10.6289L204.326 10.724L204.331 8.03596C204.339 3.95671 204.641 3.7472 210.321 3.87373C214.176 3.95982 214.454 4.01341 215.089 4.79856ZM7.60604 9.3238V13.4725H5.53166C2.54353 13.4725 2.07437 12.9128 2.07437 9.34904C2.07437 6.79998 2.13799 6.55797 2.98537 5.89175C3.64986 5.36901 4.39802 5.17506 5.7512 5.17506H7.60604V9.3238ZM14.3011 5.89175C15.1485 6.55797 15.2121 6.79998 15.2121 9.34904C15.2121 12.9128 14.7429 13.4725 11.7548 13.4725H9.68041V9.3238V5.17506H11.5352C12.8884 5.17506 13.6366 5.36901 14.3011 5.89175ZM49.785 10.1169C50.5473 10.5027 50.6493 10.7759 50.6493 12.4354C50.6493 15.047 50.2233 15.2254 44.2533 15.1148L39.586 15.0283L39.4819 12.8174C39.4245 11.6015 39.4584 10.3959 39.5573 10.138C39.8031 9.4977 48.5248 9.47938 49.785 10.1169ZM163.67 10.6946C165.337 11.328 165.295 14.1242 163.609 14.8226C162.999 15.0753 160.99 15.187 158.16 15.1255L153.676 15.0283L153.57 13.168C153.405 10.2631 153.239 10.361 158.311 10.361C160.776 10.361 163.188 10.511 163.67 10.6946Z" fill="#121212"/>
</svg>
